<svg xmlns="http://www.w3.org/2000/svg" class="qr-svg " style="width: 100%; height: auto;" viewBox="0 0 53 53">
<defs><style>rect{shape-rendering:crispEdges}</style></defs>
<path class="qr-4 " stroke="transparent" fill="#fff" fill-opacity="1" d="M13 4 h1 v1 h-1Z M16 4 h7 v1 h-7Z M24 4 h4 v1 h-4Z M29 4 h1 v1 h-1Z M32 4 h1 v1 h-1Z M14 5 h2 v1 h-2Z M19 5 h1 v1 h-1Z M21 5 h1 v1 h-1Z M23 5 h1 v1 h-1Z M26 5 h1 v1 h-1Z M30 5 h1 v1 h-1Z M33 5 h1 v1 h-1Z M14 6 h1 v1 h-1Z M16 6 h1 v1 h-1Z M18 6 h1 v1 h-1Z M21 6 h2 v1 h-2Z M25 6 h1 v1 h-1Z M27 6 h1 v1 h-1Z M29 6 h2 v1 h-2Z M33 6 h1 v1 h-1Z M36 6 h2 v1 h-2Z M13 7 h3 v1 h-3Z M18 7 h1 v1 h-1Z M20 7 h1 v1 h-1Z M24 7 h5 v1 h-5Z M30 7 h1 v1 h-1Z M32 7 h2 v1 h-2Z M35 7 h2 v1 h-2Z M21 8 h1 v1 h-1Z M23 8 h1 v1 h-1Z M29 8 h1 v1 h-1Z M33 8 h2 v1 h-2Z M14 9 h1 v1 h-1Z M20 9 h1 v1 h-1Z M23 9 h1 v1 h-1Z M30 9 h4 v1 h-4Z M35 9 h2 v1 h-2Z M13 11 h1 v1 h-1Z M15 11 h2 v1 h-2Z M18 11 h3 v1 h-3Z M23 11 h1 v1 h-1Z M30 11 h1 v1 h-1Z M33 11 h2 v1 h-2Z M36 11 h2 v1 h-2Z M40 11 h1 v1 h-1Z M14 12 h5 v1 h-5Z M23 12 h1 v1 h-1Z M29 12 h1 v1 h-1Z M31 12 h3 v1 h-3Z M35 12 h2 v1 h-2Z M39 12 h1 v1 h-1Z M4 13 h3 v1 h-3Z M9 13 h1 v1 h-1Z M11 13 h3 v1 h-3Z M15 13 h4 v1 h-4Z M21 13 h1 v1 h-1Z M25 13 h1 v1 h-1Z M27 13 h3 v1 h-3Z M31 13 h2 v1 h-2Z M35 13 h1 v1 h-1Z M37 13 h2 v1 h-2Z M41 13 h3 v1 h-3Z M45 13 h1 v1 h-1Z M47 13 h1 v1 h-1Z M6 14 h1 v1 h-1Z M8 14 h1 v1 h-1Z M12 14 h4 v1 h-4Z M17 14 h2 v1 h-2Z M22 14 h2 v1 h-2Z M27 14 h1 v1 h-1Z M29 14 h2 v1 h-2Z M33 14 h1 v1 h-1Z M36 14 h2 v1 h-2Z M39 14 h2 v1 h-2Z M42 14 h5 v1 h-5Z M4 15 h2 v1 h-2Z M8 15 h1 v1 h-1Z M11 15 h4 v1 h-4Z M16 15 h3 v1 h-3Z M24 15 h1 v1 h-1Z M32 15 h1 v1 h-1Z M34 15 h2 v1 h-2Z M37 15 h1 v1 h-1Z M39 15 h4 v1 h-4Z M44 15 h3 v1 h-3Z M8 16 h1 v1 h-1Z M11 16 h2 v1 h-2Z M18 16 h3 v1 h-3Z M23 16 h2 v1 h-2Z M26 16 h1 v1 h-1Z M28 16 h1 v1 h-1Z M30 16 h1 v1 h-1Z M32 16 h2 v1 h-2Z M35 16 h4 v1 h-4Z M42 16 h1 v1 h-1Z M44 16 h1 v1 h-1Z M46 16 h1 v1 h-1Z M4 17 h1 v1 h-1Z M6 17 h1 v1 h-1Z M8 17 h2 v1 h-2Z M13 17 h1 v1 h-1Z M15 17 h2 v1 h-2Z M18 17 h1 v1 h-1Z M25 17 h3 v1 h-3Z M29 17 h2 v1 h-2Z M34 17 h2 v1 h-2Z M38 17 h3 v1 h-3Z M44 17 h2 v1 h-2Z M48 17 h1 v1 h-1Z M7 18 h1 v1 h-1Z M9 18 h1 v1 h-1Z M12 18 h1 v1 h-1Z M14 18 h4 v1 h-4Z M19 18 h1 v1 h-1Z M23 18 h3 v1 h-3Z M27 18 h1 v1 h-1Z M29 18 h4 v1 h-4Z M35 18 h6 v1 h-6Z M44 18 h5 v1 h-5Z M5 19 h2 v1 h-2Z M8 19 h1 v1 h-1Z M12 19 h3 v1 h-3Z M16 19 h5 v1 h-5Z M23 19 h2 v1 h-2Z M26 19 h1 v1 h-1Z M28 19 h1 v1 h-1Z M30 19 h2 v1 h-2Z M34 19 h3 v1 h-3Z M39 19 h2 v1 h-2Z M42 19 h1 v1 h-1Z M47 19 h1 v1 h-1Z M5 20 h2 v1 h-2Z M12 20 h1 v1 h-1Z M14 20 h1 v1 h-1Z M21 20 h8 v1 h-8Z M31 20 h1 v1 h-1Z M38 20 h1 v1 h-1Z M40 20 h2 v1 h-2Z M44 20 h1 v1 h-1Z M47 20 h1 v1 h-1Z M6 21 h2 v1 h-2Z M11 21 h2 v1 h-2Z M15 21 h1 v1 h-1Z M17 21 h1 v1 h-1Z M19 21 h1 v1 h-1Z M21 21 h5 v1 h-5Z M28 21 h1 v1 h-1Z M31 21 h2 v1 h-2Z M36 21 h1 v1 h-1Z M40 21 h4 v1 h-4Z M46 21 h1 v1 h-1Z M7 22 h2 v1 h-2Z M12 22 h2 v1 h-2Z M15 22 h2 v1 h-2Z M20 22 h1 v1 h-1Z M22 22 h1 v1 h-1Z M25 22 h1 v1 h-1Z M27 22 h1 v1 h-1Z M32 22 h2 v1 h-2Z M35 22 h1 v1 h-1Z M38 22 h2 v1 h-2Z M41 22 h2 v1 h-2Z M45 22 h2 v1 h-2Z M48 22 h1 v1 h-1Z M5 23 h5 v1 h-5Z M14 23 h2 v1 h-2Z M17 23 h1 v1 h-1Z M19 23 h1 v1 h-1Z M22 23 h4 v1 h-4Z M28 23 h2 v1 h-2Z M31 23 h2 v1 h-2Z M34 23 h1 v1 h-1Z M42 23 h1 v1 h-1Z M45 23 h2 v1 h-2Z M48 23 h1 v1 h-1Z M4 24 h1 v1 h-1Z M6 24 h2 v1 h-2Z M14 24 h1 v1 h-1Z M16 24 h2 v1 h-2Z M19 24 h1 v1 h-1Z M21 24 h2 v1 h-2Z M29 24 h2 v1 h-2Z M34 24 h3 v1 h-3Z M39 24 h1 v1 h-1Z M5 25 h1 v1 h-1Z M7 25 h1 v1 h-1Z M15 25 h1 v1 h-1Z M17 25 h1 v1 h-1Z M21 25 h1 v1 h-1Z M31 25 h1 v1 h-1Z M33 25 h1 v1 h-1Z M36 25 h3 v1 h-3Z M45 25 h3 v1 h-3Z M4 26 h1 v1 h-1Z M6 26 h2 v1 h-2Z M13 26 h1 v1 h-1Z M15 26 h3 v1 h-3Z M20 26 h1 v1 h-1Z M22 26 h2 v1 h-2Z M31 26 h1 v1 h-1Z M33 26 h2 v1 h-2Z M36 26 h2 v1 h-2Z M39 26 h1 v1 h-1Z M4 27 h1 v1 h-1Z M7 27 h1 v1 h-1Z M14 27 h1 v1 h-1Z M29 27 h1 v1 h-1Z M34 27 h2 v1 h-2Z M37 27 h3 v1 h-3Z M46 27 h1 v1 h-1Z M7 28 h1 v1 h-1Z M13 28 h2 v1 h-2Z M16 28 h4 v1 h-4Z M21 28 h1 v1 h-1Z M23 28 h1 v1 h-1Z M29 28 h1 v1 h-1Z M33 28 h6 v1 h-6Z M4 29 h1 v1 h-1Z M6 29 h2 v1 h-2Z M9 29 h1 v1 h-1Z M11 29 h3 v1 h-3Z M18 29 h1 v1 h-1Z M21 29 h3 v1 h-3Z M25 29 h1 v1 h-1Z M28 29 h3 v1 h-3Z M32 29 h1 v1 h-1Z M35 29 h1 v1 h-1Z M37 29 h3 v1 h-3Z M44 29 h1 v1 h-1Z M48 29 h1 v1 h-1Z M6 30 h1 v1 h-1Z M8 30 h1 v1 h-1Z M11 30 h5 v1 h-5Z M17 30 h2 v1 h-2Z M20 30 h2 v1 h-2Z M23 30 h2 v1 h-2Z M27 30 h2 v1 h-2Z M30 30 h3 v1 h-3Z M34 30 h1 v1 h-1Z M38 30 h1 v1 h-1Z M41 30 h2 v1 h-2Z M48 30 h1 v1 h-1Z M5 31 h1 v1 h-1Z M9 31 h1 v1 h-1Z M12 31 h2 v1 h-2Z M17 31 h2 v1 h-2Z M20 31 h3 v1 h-3Z M28 31 h1 v1 h-1Z M31 31 h1 v1 h-1Z M34 31 h2 v1 h-2Z M37 31 h1 v1 h-1Z M43 31 h1 v1 h-1Z M48 31 h1 v1 h-1Z M4 32 h2 v1 h-2Z M8 32 h1 v1 h-1Z M13 32 h2 v1 h-2Z M18 32 h1 v1 h-1Z M22 32 h1 v1 h-1Z M24 32 h1 v1 h-1Z M26 32 h2 v1 h-2Z M29 32 h3 v1 h-3Z M33 32 h2 v1 h-2Z M37 32 h1 v1 h-1Z M40 32 h2 v1 h-2Z M43 32 h1 v1 h-1Z M45 32 h1 v1 h-1Z M48 32 h1 v1 h-1Z M4 33 h4 v1 h-4Z M12 33 h1 v1 h-1Z M14 33 h4 v1 h-4Z M19 33 h1 v1 h-1Z M21 33 h2 v1 h-2Z M26 33 h2 v1 h-2Z M30 33 h3 v1 h-3Z M34 33 h4 v1 h-4Z M40 33 h3 v1 h-3Z M46 33 h1 v1 h-1Z M48 33 h1 v1 h-1Z M4 34 h3 v1 h-3Z M8 34 h1 v1 h-1Z M12 34 h1 v1 h-1Z M15 34 h1 v1 h-1Z M17 34 h1 v1 h-1Z M19 34 h1 v1 h-1Z M22 34 h3 v1 h-3Z M27 34 h1 v1 h-1Z M29 34 h5 v1 h-5Z M36 34 h2 v1 h-2Z M39 34 h1 v1 h-1Z M41 34 h2 v1 h-2Z M44 34 h2 v1 h-2Z M48 34 h1 v1 h-1Z M5 35 h2 v1 h-2Z M12 35 h1 v1 h-1Z M14 35 h1 v1 h-1Z M16 35 h2 v1 h-2Z M20 35 h4 v1 h-4Z M27 35 h1 v1 h-1Z M32 35 h1 v1 h-1Z M34 35 h1 v1 h-1Z M36 35 h1 v1 h-1Z M38 35 h2 v1 h-2Z M42 35 h1 v1 h-1Z M44 35 h1 v1 h-1Z M46 35 h3 v1 h-3Z M14 36 h2 v1 h-2Z M18 36 h2 v1 h-2Z M21 36 h4 v1 h-4Z M26 36 h1 v1 h-1Z M32 36 h8 v1 h-8Z M41 36 h2 v1 h-2Z M44 36 h2 v1 h-2Z M47 36 h2 v1 h-2Z M5 37 h1 v1 h-1Z M8 37 h2 v1 h-2Z M11 37 h2 v1 h-2Z M14 37 h2 v1 h-2Z M17 37 h2 v1 h-2Z M21 37 h3 v1 h-3Z M26 37 h3 v1 h-3Z M31 37 h3 v1 h-3Z M37 37 h2 v1 h-2Z M40 37 h3 v1 h-3Z M44 37 h3 v1 h-3Z M11 38 h2 v1 h-2Z M16 38 h4 v1 h-4Z M21 38 h3 v1 h-3Z M25 38 h1 v1 h-1Z M27 38 h4 v1 h-4Z M37 38 h1 v1 h-1Z M39 38 h3 v1 h-3Z M43 38 h1 v1 h-1Z M45 38 h2 v1 h-2Z M13 39 h3 v1 h-3Z M18 39 h1 v1 h-1Z M20 39 h4 v1 h-4Z M26 39 h1 v1 h-1Z M28 39 h1 v1 h-1Z M33 39 h3 v1 h-3Z M39 39 h1 v1 h-1Z M41 39 h1 v1 h-1Z M44 39 h1 v1 h-1Z M46 39 h2 v1 h-2Z M13 40 h1 v1 h-1Z M18 40 h1 v1 h-1Z M20 40 h1 v1 h-1Z M23 40 h1 v1 h-1Z M29 40 h1 v1 h-1Z M35 40 h5 v1 h-5Z M46 40 h3 v1 h-3Z M14 41 h1 v1 h-1Z M16 41 h2 v1 h-2Z M20 41 h1 v1 h-1Z M23 41 h1 v1 h-1Z M29 41 h1 v1 h-1Z M31 41 h1 v1 h-1Z M38 41 h1 v1 h-1Z M45 41 h4 v1 h-4Z M15 42 h2 v1 h-2Z M19 42 h3 v1 h-3Z M29 42 h1 v1 h-1Z M31 42 h2 v1 h-2Z M34 42 h4 v1 h-4Z M46 42 h3 v1 h-3Z M14 43 h6 v1 h-6Z M21 43 h3 v1 h-3Z M29 43 h1 v1 h-1Z M33 43 h5 v1 h-5Z M39 43 h1 v1 h-1Z M47 43 h2 v1 h-2Z M14 44 h2 v1 h-2Z M17 44 h3 v1 h-3Z M22 44 h2 v1 h-2Z M29 44 h4 v1 h-4Z M39 44 h1 v1 h-1Z M16 45 h2 v1 h-2Z M20 45 h1 v1 h-1Z M23 45 h2 v1 h-2Z M26 45 h2 v1 h-2Z M29 45 h2 v1 h-2Z M32 45 h3 v1 h-3Z M42 45 h2 v1 h-2Z M46 45 h2 v1 h-2Z M14 46 h2 v1 h-2Z M18 46 h3 v1 h-3Z M23 46 h2 v1 h-2Z M26 46 h1 v1 h-1Z M33 46 h3 v1 h-3Z M37 46 h1 v1 h-1Z M39 46 h1 v1 h-1Z M43 46 h2 v1 h-2Z M46 46 h3 v1 h-3Z M14 47 h1 v1 h-1Z M16 47 h3 v1 h-3Z M20 47 h1 v1 h-1Z M23 47 h1 v1 h-1Z M25 47 h1 v1 h-1Z M27 47 h2 v1 h-2Z M31 47 h3 v1 h-3Z M36 47 h2 v1 h-2Z M44 47 h4 v1 h-4Z M14 48 h1 v1 h-1Z M16 48 h1 v1 h-1Z M19 48 h1 v1 h-1Z M22 48 h1 v1 h-1Z M25 48 h2 v1 h-2Z M29 48 h2 v1 h-2Z M34 48 h1 v1 h-1Z M36 48 h1 v1 h-1Z M40 48 h1 v1 h-1Z M43 48 h6 v1 h-6Z " /><path class="qr-6 " stroke="transparent" fill="#fff" fill-opacity="1" d="M5 5 h5 v1 h-5Z M43 5 h5 v1 h-5Z M5 6 h1 v1 h-1Z M9 6 h1 v1 h-1Z M43 6 h1 v1 h-1Z M47 6 h1 v1 h-1Z M5 7 h1 v1 h-1Z M9 7 h1 v1 h-1Z M43 7 h1 v1 h-1Z M47 7 h1 v1 h-1Z M5 8 h1 v1 h-1Z M9 8 h1 v1 h-1Z M43 8 h1 v1 h-1Z M47 8 h1 v1 h-1Z M5 9 h5 v1 h-5Z M43 9 h5 v1 h-5Z M5 43 h5 v1 h-5Z M5 44 h1 v1 h-1Z M9 44 h1 v1 h-1Z M5 45 h1 v1 h-1Z M9 45 h1 v1 h-1Z M5 46 h1 v1 h-1Z M9 46 h1 v1 h-1Z M5 47 h5 v1 h-5Z " /><path class="qr-8 " stroke="transparent" fill="#fff" fill-opacity="1" d="M11 4 h1 v1 h-1Z M41 4 h1 v1 h-1Z M11 5 h1 v1 h-1Z M41 5 h1 v1 h-1Z M11 6 h1 v1 h-1Z M41 6 h1 v1 h-1Z M11 7 h1 v1 h-1Z M41 7 h1 v1 h-1Z M11 8 h1 v1 h-1Z M41 8 h1 v1 h-1Z M11 9 h1 v1 h-1Z M41 9 h1 v1 h-1Z M11 10 h1 v1 h-1Z M41 10 h1 v1 h-1Z M4 11 h8 v1 h-8Z M41 11 h8 v1 h-8Z M4 41 h8 v1 h-8Z M11 42 h1 v1 h-1Z M11 43 h1 v1 h-1Z M11 44 h1 v1 h-1Z M11 45 h1 v1 h-1Z M11 46 h1 v1 h-1Z M11 47 h1 v1 h-1Z M11 48 h1 v1 h-1Z " /><path class="qr-10 " stroke="transparent" fill="#fff" fill-opacity="1" d="M25 9 h3 v1 h-3Z M25 10 h1 v1 h-1Z M27 10 h1 v1 h-1Z M25 11 h3 v1 h-3Z M9 25 h3 v1 h-3Z M25 25 h3 v1 h-3Z M41 25 h3 v1 h-3Z M9 26 h1 v1 h-1Z M11 26 h1 v1 h-1Z M25 26 h1 v1 h-1Z M27 26 h1 v1 h-1Z M41 26 h1 v1 h-1Z M43 26 h1 v1 h-1Z M9 27 h3 v1 h-3Z M25 27 h3 v1 h-3Z M41 27 h3 v1 h-3Z M25 41 h3 v1 h-3Z M41 41 h3 v1 h-3Z M25 42 h1 v1 h-1Z M27 42 h1 v1 h-1Z M41 42 h1 v1 h-1Z M43 42 h1 v1 h-1Z M25 43 h3 v1 h-3Z M41 43 h3 v1 h-3Z " /><path class="qr-12 " stroke="transparent" fill="#fff" fill-opacity="1" d="M13 10 h1 v1 h-1Z M15 10 h1 v1 h-1Z M17 10 h1 v1 h-1Z M19 10 h1 v1 h-1Z M21 10 h1 v1 h-1Z M23 10 h1 v1 h-1Z M29 10 h1 v1 h-1Z M31 10 h1 v1 h-1Z M33 10 h1 v1 h-1Z M35 10 h1 v1 h-1Z M37 10 h1 v1 h-1Z M39 10 h1 v1 h-1Z M10 13 h1 v1 h-1Z M10 15 h1 v1 h-1Z M10 17 h1 v1 h-1Z M10 19 h1 v1 h-1Z M10 21 h1 v1 h-1Z M10 23 h1 v1 h-1Z M10 29 h1 v1 h-1Z M10 31 h1 v1 h-1Z M10 33 h1 v1 h-1Z M10 35 h1 v1 h-1Z M10 37 h1 v1 h-1Z M10 39 h1 v1 h-1Z " /><path class="qr-14 " stroke="transparent" fill="#fff" fill-opacity="1" d="M12 4 h1 v1 h-1Z M12 5 h1 v1 h-1Z M12 6 h1 v1 h-1Z M12 7 h1 v1 h-1Z M12 9 h1 v1 h-1Z M4 12 h2 v1 h-2Z M8 12 h2 v1 h-2Z M43 12 h1 v1 h-1Z M45 12 h4 v1 h-4Z M12 43 h1 v1 h-1Z M12 44 h1 v1 h-1Z M12 47 h1 v1 h-1Z M12 48 h1 v1 h-1Z " /><path class="qr-16 " stroke="transparent" fill="#fff" fill-opacity="1" d="M38 4 h2 v1 h-2Z M38 5 h1 v1 h-1Z M40 5 h1 v1 h-1Z M38 6 h1 v1 h-1Z M40 6 h1 v1 h-1Z M38 7 h1 v1 h-1Z M38 9 h3 v1 h-3Z M4 38 h4 v1 h-4Z M9 38 h1 v1 h-1Z M4 39 h1 v1 h-1Z M9 39 h1 v1 h-1Z M5 40 h2 v1 h-2Z M9 40 h1 v1 h-1Z " /><path class="qr-18 " stroke="transparent" fill="#fff" fill-opacity="1" d="M0 0 h53 v1 h-53Z M0 1 h53 v1 h-53Z M0 2 h53 v1 h-53Z M0 3 h53 v1 h-53Z M0 4 h4 v1 h-4Z M49 4 h4 v1 h-4Z M0 5 h4 v1 h-4Z M49 5 h4 v1 h-4Z M0 6 h4 v1 h-4Z M49 6 h4 v1 h-4Z M0 7 h4 v1 h-4Z M49 7 h4 v1 h-4Z M0 8 h4 v1 h-4Z M49 8 h4 v1 h-4Z M0 9 h4 v1 h-4Z M49 9 h4 v1 h-4Z M0 10 h4 v1 h-4Z M49 10 h4 v1 h-4Z M0 11 h4 v1 h-4Z M49 11 h4 v1 h-4Z M0 12 h4 v1 h-4Z M49 12 h4 v1 h-4Z M0 13 h4 v1 h-4Z M49 13 h4 v1 h-4Z M0 14 h4 v1 h-4Z M49 14 h4 v1 h-4Z M0 15 h4 v1 h-4Z M49 15 h4 v1 h-4Z M0 16 h4 v1 h-4Z M49 16 h4 v1 h-4Z M0 17 h4 v1 h-4Z M49 17 h4 v1 h-4Z M0 18 h4 v1 h-4Z M49 18 h4 v1 h-4Z M0 19 h4 v1 h-4Z M49 19 h4 v1 h-4Z M0 20 h4 v1 h-4Z M49 20 h4 v1 h-4Z M0 21 h4 v1 h-4Z M49 21 h4 v1 h-4Z M0 22 h4 v1 h-4Z M49 22 h4 v1 h-4Z M0 23 h4 v1 h-4Z M49 23 h4 v1 h-4Z M0 24 h4 v1 h-4Z M49 24 h4 v1 h-4Z M0 25 h4 v1 h-4Z M49 25 h4 v1 h-4Z M0 26 h4 v1 h-4Z M49 26 h4 v1 h-4Z M0 27 h4 v1 h-4Z M49 27 h4 v1 h-4Z M0 28 h4 v1 h-4Z M49 28 h4 v1 h-4Z M0 29 h4 v1 h-4Z M49 29 h4 v1 h-4Z M0 30 h4 v1 h-4Z M49 30 h4 v1 h-4Z M0 31 h4 v1 h-4Z M49 31 h4 v1 h-4Z M0 32 h4 v1 h-4Z M49 32 h4 v1 h-4Z M0 33 h4 v1 h-4Z M49 33 h4 v1 h-4Z M0 34 h4 v1 h-4Z M49 34 h4 v1 h-4Z M0 35 h4 v1 h-4Z M49 35 h4 v1 h-4Z M0 36 h4 v1 h-4Z M49 36 h4 v1 h-4Z M0 37 h4 v1 h-4Z M49 37 h4 v1 h-4Z M0 38 h4 v1 h-4Z M49 38 h4 v1 h-4Z M0 39 h4 v1 h-4Z M49 39 h4 v1 h-4Z M0 40 h4 v1 h-4Z M49 40 h4 v1 h-4Z M0 41 h4 v1 h-4Z M49 41 h4 v1 h-4Z M0 42 h4 v1 h-4Z M49 42 h4 v1 h-4Z M0 43 h4 v1 h-4Z M49 43 h4 v1 h-4Z M0 44 h4 v1 h-4Z M49 44 h4 v1 h-4Z M0 45 h4 v1 h-4Z M49 45 h4 v1 h-4Z M0 46 h4 v1 h-4Z M49 46 h4 v1 h-4Z M0 47 h4 v1 h-4Z M49 47 h4 v1 h-4Z M0 48 h4 v1 h-4Z M49 48 h4 v1 h-4Z M0 49 h53 v1 h-53Z M0 50 h53 v1 h-53Z M0 51 h53 v1 h-53Z M0 52 h53 v1 h-53Z " /><path class="qr-512 " stroke="transparent" fill="#000" fill-opacity="1" d="M12 41 h1 v1 h-1Z " /><path class="qr-1024 " stroke="transparent" fill="#000" fill-opacity="1" d="M14 4 h2 v1 h-2Z M23 4 h1 v1 h-1Z M28 4 h1 v1 h-1Z M30 4 h2 v1 h-2Z M33 4 h5 v1 h-5Z M13 5 h1 v1 h-1Z M16 5 h3 v1 h-3Z M20 5 h1 v1 h-1Z M22 5 h1 v1 h-1Z M24 5 h2 v1 h-2Z M27 5 h3 v1 h-3Z M31 5 h2 v1 h-2Z M34 5 h4 v1 h-4Z M13 6 h1 v1 h-1Z M15 6 h1 v1 h-1Z M17 6 h1 v1 h-1Z M19 6 h2 v1 h-2Z M23 6 h2 v1 h-2Z M26 6 h1 v1 h-1Z M28 6 h1 v1 h-1Z M31 6 h2 v1 h-2Z M34 6 h2 v1 h-2Z M16 7 h2 v1 h-2Z M19 7 h1 v1 h-1Z M21 7 h3 v1 h-3Z M29 7 h1 v1 h-1Z M31 7 h1 v1 h-1Z M34 7 h1 v1 h-1Z M37 7 h1 v1 h-1Z M13 8 h8 v1 h-8Z M22 8 h1 v1 h-1Z M30 8 h3 v1 h-3Z M35 8 h3 v1 h-3Z M13 9 h1 v1 h-1Z M15 9 h5 v1 h-5Z M21 9 h2 v1 h-2Z M29 9 h1 v1 h-1Z M34 9 h1 v1 h-1Z M37 9 h1 v1 h-1Z M14 11 h1 v1 h-1Z M17 11 h1 v1 h-1Z M21 11 h2 v1 h-2Z M29 11 h1 v1 h-1Z M31 11 h2 v1 h-2Z M35 11 h1 v1 h-1Z M38 11 h2 v1 h-2Z M13 12 h1 v1 h-1Z M19 12 h4 v1 h-4Z M30 12 h1 v1 h-1Z M34 12 h1 v1 h-1Z M37 12 h2 v1 h-2Z M40 12 h1 v1 h-1Z M7 13 h2 v1 h-2Z M14 13 h1 v1 h-1Z M19 13 h2 v1 h-2Z M22 13 h3 v1 h-3Z M26 13 h1 v1 h-1Z M30 13 h1 v1 h-1Z M33 13 h2 v1 h-2Z M36 13 h1 v1 h-1Z M39 13 h2 v1 h-2Z M44 13 h1 v1 h-1Z M46 13 h1 v1 h-1Z M48 13 h1 v1 h-1Z M4 14 h2 v1 h-2Z M7 14 h1 v1 h-1Z M9 14 h1 v1 h-1Z M11 14 h1 v1 h-1Z M16 14 h1 v1 h-1Z M19 14 h3 v1 h-3Z M24 14 h3 v1 h-3Z M28 14 h1 v1 h-1Z M31 14 h2 v1 h-2Z M34 14 h2 v1 h-2Z M38 14 h1 v1 h-1Z M41 14 h1 v1 h-1Z M47 14 h2 v1 h-2Z M6 15 h2 v1 h-2Z M9 15 h1 v1 h-1Z M15 15 h1 v1 h-1Z M19 15 h5 v1 h-5Z M25 15 h7 v1 h-7Z M33 15 h1 v1 h-1Z M36 15 h1 v1 h-1Z M38 15 h1 v1 h-1Z M43 15 h1 v1 h-1Z M47 15 h2 v1 h-2Z M4 16 h4 v1 h-4Z M9 16 h1 v1 h-1Z M13 16 h5 v1 h-5Z M21 16 h2 v1 h-2Z M25 16 h1 v1 h-1Z M27 16 h1 v1 h-1Z M29 16 h1 v1 h-1Z M31 16 h1 v1 h-1Z M34 16 h1 v1 h-1Z M39 16 h3 v1 h-3Z M43 16 h1 v1 h-1Z M45 16 h1 v1 h-1Z M47 16 h2 v1 h-2Z M5 17 h1 v1 h-1Z M7 17 h1 v1 h-1Z M11 17 h2 v1 h-2Z M14 17 h1 v1 h-1Z M17 17 h1 v1 h-1Z M19 17 h6 v1 h-6Z M28 17 h1 v1 h-1Z M31 17 h3 v1 h-3Z M36 17 h2 v1 h-2Z M41 17 h3 v1 h-3Z M46 17 h2 v1 h-2Z M4 18 h3 v1 h-3Z M8 18 h1 v1 h-1Z M11 18 h1 v1 h-1Z M13 18 h1 v1 h-1Z M18 18 h1 v1 h-1Z M20 18 h3 v1 h-3Z M26 18 h1 v1 h-1Z M28 18 h1 v1 h-1Z M33 18 h2 v1 h-2Z M41 18 h3 v1 h-3Z M4 19 h1 v1 h-1Z M7 19 h1 v1 h-1Z M9 19 h1 v1 h-1Z M11 19 h1 v1 h-1Z M15 19 h1 v1 h-1Z M21 19 h2 v1 h-2Z M25 19 h1 v1 h-1Z M27 19 h1 v1 h-1Z M29 19 h1 v1 h-1Z M32 19 h2 v1 h-2Z M37 19 h2 v1 h-2Z M41 19 h1 v1 h-1Z M43 19 h4 v1 h-4Z M48 19 h1 v1 h-1Z M4 20 h1 v1 h-1Z M7 20 h3 v1 h-3Z M11 20 h1 v1 h-1Z M13 20 h1 v1 h-1Z M15 20 h6 v1 h-6Z M29 20 h2 v1 h-2Z M32 20 h6 v1 h-6Z M39 20 h1 v1 h-1Z M42 20 h2 v1 h-2Z M45 20 h2 v1 h-2Z M48 20 h1 v1 h-1Z M4 21 h2 v1 h-2Z M8 21 h2 v1 h-2Z M13 21 h2 v1 h-2Z M16 21 h1 v1 h-1Z M18 21 h1 v1 h-1Z M20 21 h1 v1 h-1Z M26 21 h2 v1 h-2Z M29 21 h2 v1 h-2Z M33 21 h3 v1 h-3Z M37 21 h3 v1 h-3Z M44 21 h2 v1 h-2Z M47 21 h2 v1 h-2Z M4 22 h3 v1 h-3Z M9 22 h1 v1 h-1Z M11 22 h1 v1 h-1Z M14 22 h1 v1 h-1Z M17 22 h3 v1 h-3Z M21 22 h1 v1 h-1Z M23 22 h2 v1 h-2Z M26 22 h1 v1 h-1Z M28 22 h4 v1 h-4Z M34 22 h1 v1 h-1Z M36 22 h2 v1 h-2Z M40 22 h1 v1 h-1Z M43 22 h2 v1 h-2Z M47 22 h1 v1 h-1Z M4 23 h1 v1 h-1Z M11 23 h3 v1 h-3Z M16 23 h1 v1 h-1Z M18 23 h1 v1 h-1Z M20 23 h2 v1 h-2Z M26 23 h2 v1 h-2Z M30 23 h1 v1 h-1Z M33 23 h1 v1 h-1Z M35 23 h7 v1 h-7Z M43 23 h2 v1 h-2Z M47 23 h1 v1 h-1Z M5 24 h1 v1 h-1Z M13 24 h1 v1 h-1Z M15 24 h1 v1 h-1Z M18 24 h1 v1 h-1Z M20 24 h1 v1 h-1Z M23 24 h1 v1 h-1Z M31 24 h3 v1 h-3Z M37 24 h2 v1 h-2Z M45 24 h4 v1 h-4Z M4 25 h1 v1 h-1Z M6 25 h1 v1 h-1Z M13 25 h2 v1 h-2Z M16 25 h1 v1 h-1Z M18 25 h3 v1 h-3Z M22 25 h2 v1 h-2Z M29 25 h2 v1 h-2Z M32 25 h1 v1 h-1Z M34 25 h2 v1 h-2Z M39 25 h1 v1 h-1Z M48 25 h1 v1 h-1Z M5 26 h1 v1 h-1Z M14 26 h1 v1 h-1Z M18 26 h2 v1 h-2Z M21 26 h1 v1 h-1Z M29 26 h2 v1 h-2Z M32 26 h1 v1 h-1Z M35 26 h1 v1 h-1Z M38 26 h1 v1 h-1Z M45 26 h4 v1 h-4Z M5 27 h2 v1 h-2Z M13 27 h1 v1 h-1Z M15 27 h9 v1 h-9Z M30 27 h4 v1 h-4Z M36 27 h1 v1 h-1Z M45 27 h1 v1 h-1Z M47 27 h2 v1 h-2Z M4 28 h3 v1 h-3Z M15 28 h1 v1 h-1Z M20 28 h1 v1 h-1Z M22 28 h1 v1 h-1Z M30 28 h3 v1 h-3Z M39 28 h1 v1 h-1Z M45 28 h4 v1 h-4Z M5 29 h1 v1 h-1Z M8 29 h1 v1 h-1Z M14 29 h4 v1 h-4Z M19 29 h2 v1 h-2Z M24 29 h1 v1 h-1Z M26 29 h2 v1 h-2Z M31 29 h1 v1 h-1Z M33 29 h2 v1 h-2Z M36 29 h1 v1 h-1Z M40 29 h4 v1 h-4Z M45 29 h3 v1 h-3Z M4 30 h2 v1 h-2Z M7 30 h1 v1 h-1Z M9 30 h1 v1 h-1Z M16 30 h1 v1 h-1Z M19 30 h1 v1 h-1Z M22 30 h1 v1 h-1Z M25 30 h2 v1 h-2Z M29 30 h1 v1 h-1Z M33 30 h1 v1 h-1Z M35 30 h3 v1 h-3Z M39 30 h2 v1 h-2Z M43 30 h5 v1 h-5Z M4 31 h1 v1 h-1Z M6 31 h3 v1 h-3Z M11 31 h1 v1 h-1Z M14 31 h3 v1 h-3Z M19 31 h1 v1 h-1Z M23 31 h5 v1 h-5Z M29 31 h2 v1 h-2Z M32 31 h2 v1 h-2Z M36 31 h1 v1 h-1Z M38 31 h5 v1 h-5Z M44 31 h4 v1 h-4Z M6 32 h2 v1 h-2Z M9 32 h1 v1 h-1Z M11 32 h2 v1 h-2Z M15 32 h3 v1 h-3Z M19 32 h3 v1 h-3Z M23 32 h1 v1 h-1Z M25 32 h1 v1 h-1Z M28 32 h1 v1 h-1Z M32 32 h1 v1 h-1Z M35 32 h2 v1 h-2Z M38 32 h2 v1 h-2Z M42 32 h1 v1 h-1Z M44 32 h1 v1 h-1Z M46 32 h2 v1 h-2Z M8 33 h2 v1 h-2Z M11 33 h1 v1 h-1Z M13 33 h1 v1 h-1Z M18 33 h1 v1 h-1Z M20 33 h1 v1 h-1Z M23 33 h3 v1 h-3Z M28 33 h2 v1 h-2Z M33 33 h1 v1 h-1Z M38 33 h2 v1 h-2Z M43 33 h3 v1 h-3Z M47 33 h1 v1 h-1Z M7 34 h1 v1 h-1Z M9 34 h1 v1 h-1Z M11 34 h1 v1 h-1Z M13 34 h2 v1 h-2Z M16 34 h1 v1 h-1Z M18 34 h1 v1 h-1Z M20 34 h2 v1 h-2Z M25 34 h2 v1 h-2Z M28 34 h1 v1 h-1Z M34 34 h2 v1 h-2Z M38 34 h1 v1 h-1Z M40 34 h1 v1 h-1Z M43 34 h1 v1 h-1Z M46 34 h2 v1 h-2Z M4 35 h1 v1 h-1Z M7 35 h3 v1 h-3Z M11 35 h1 v1 h-1Z M13 35 h1 v1 h-1Z M15 35 h1 v1 h-1Z M18 35 h2 v1 h-2Z M24 35 h3 v1 h-3Z M28 35 h4 v1 h-4Z M33 35 h1 v1 h-1Z M35 35 h1 v1 h-1Z M37 35 h1 v1 h-1Z M40 35 h2 v1 h-2Z M43 35 h1 v1 h-1Z M45 35 h1 v1 h-1Z M4 36 h6 v1 h-6Z M11 36 h3 v1 h-3Z M16 36 h2 v1 h-2Z M20 36 h1 v1 h-1Z M25 36 h1 v1 h-1Z M27 36 h5 v1 h-5Z M40 36 h1 v1 h-1Z M43 36 h1 v1 h-1Z M46 36 h1 v1 h-1Z M4 37 h1 v1 h-1Z M6 37 h2 v1 h-2Z M13 37 h1 v1 h-1Z M16 37 h1 v1 h-1Z M19 37 h2 v1 h-2Z M24 37 h2 v1 h-2Z M29 37 h2 v1 h-2Z M34 37 h3 v1 h-3Z M39 37 h1 v1 h-1Z M43 37 h1 v1 h-1Z M47 37 h2 v1 h-2Z M13 38 h3 v1 h-3Z M20 38 h1 v1 h-1Z M24 38 h1 v1 h-1Z M26 38 h1 v1 h-1Z M31 38 h6 v1 h-6Z M38 38 h1 v1 h-1Z M42 38 h1 v1 h-1Z M44 38 h1 v1 h-1Z M47 38 h2 v1 h-2Z M11 39 h2 v1 h-2Z M16 39 h2 v1 h-2Z M19 39 h1 v1 h-1Z M24 39 h2 v1 h-2Z M27 39 h1 v1 h-1Z M29 39 h4 v1 h-4Z M36 39 h3 v1 h-3Z M40 39 h1 v1 h-1Z M42 39 h2 v1 h-2Z M45 39 h1 v1 h-1Z M48 39 h1 v1 h-1Z M11 40 h2 v1 h-2Z M14 40 h4 v1 h-4Z M19 40 h1 v1 h-1Z M21 40 h2 v1 h-2Z M30 40 h5 v1 h-5Z M45 40 h1 v1 h-1Z M13 41 h1 v1 h-1Z M15 41 h1 v1 h-1Z M18 41 h2 v1 h-2Z M21 41 h2 v1 h-2Z M30 41 h1 v1 h-1Z M32 41 h6 v1 h-6Z M39 41 h1 v1 h-1Z M13 42 h2 v1 h-2Z M17 42 h2 v1 h-2Z M22 42 h2 v1 h-2Z M30 42 h1 v1 h-1Z M33 42 h1 v1 h-1Z M38 42 h2 v1 h-2Z M45 42 h1 v1 h-1Z M13 43 h1 v1 h-1Z M20 43 h1 v1 h-1Z M30 43 h3 v1 h-3Z M38 43 h1 v1 h-1Z M45 43 h2 v1 h-2Z M13 44 h1 v1 h-1Z M16 44 h1 v1 h-1Z M20 44 h2 v1 h-2Z M33 44 h6 v1 h-6Z M45 44 h4 v1 h-4Z M13 45 h3 v1 h-3Z M18 45 h2 v1 h-2Z M21 45 h2 v1 h-2Z M25 45 h1 v1 h-1Z M28 45 h1 v1 h-1Z M31 45 h1 v1 h-1Z M35 45 h7 v1 h-7Z M44 45 h2 v1 h-2Z M48 45 h1 v1 h-1Z M13 46 h1 v1 h-1Z M16 46 h2 v1 h-2Z M21 46 h2 v1 h-2Z M25 46 h1 v1 h-1Z M27 46 h6 v1 h-6Z M36 46 h1 v1 h-1Z M38 46 h1 v1 h-1Z M40 46 h3 v1 h-3Z M45 46 h1 v1 h-1Z M13 47 h1 v1 h-1Z M15 47 h1 v1 h-1Z M19 47 h1 v1 h-1Z M21 47 h2 v1 h-2Z M24 47 h1 v1 h-1Z M26 47 h1 v1 h-1Z M29 47 h2 v1 h-2Z M34 47 h2 v1 h-2Z M38 47 h6 v1 h-6Z M48 47 h1 v1 h-1Z M13 48 h1 v1 h-1Z M15 48 h1 v1 h-1Z M17 48 h2 v1 h-2Z M20 48 h2 v1 h-2Z M23 48 h2 v1 h-2Z M27 48 h2 v1 h-2Z M31 48 h3 v1 h-3Z M35 48 h1 v1 h-1Z M37 48 h3 v1 h-3Z M41 48 h2 v1 h-2Z " /><path class="qr-1536 " stroke="transparent" fill="#000" fill-opacity="1" d="M4 4 h7 v1 h-7Z M42 4 h7 v1 h-7Z M4 5 h1 v1 h-1Z M10 5 h1 v1 h-1Z M42 5 h1 v1 h-1Z M48 5 h1 v1 h-1Z M4 6 h1 v1 h-1Z M10 6 h1 v1 h-1Z M42 6 h1 v1 h-1Z M48 6 h1 v1 h-1Z M4 7 h1 v1 h-1Z M10 7 h1 v1 h-1Z M42 7 h1 v1 h-1Z M48 7 h1 v1 h-1Z M4 8 h1 v1 h-1Z M10 8 h1 v1 h-1Z M42 8 h1 v1 h-1Z M48 8 h1 v1 h-1Z M4 9 h1 v1 h-1Z M10 9 h1 v1 h-1Z M42 9 h1 v1 h-1Z M48 9 h1 v1 h-1Z M4 10 h7 v1 h-7Z M42 10 h7 v1 h-7Z M4 42 h7 v1 h-7Z M4 43 h1 v1 h-1Z M10 43 h1 v1 h-1Z M4 44 h1 v1 h-1Z M10 44 h1 v1 h-1Z M4 45 h1 v1 h-1Z M10 45 h1 v1 h-1Z M4 46 h1 v1 h-1Z M10 46 h1 v1 h-1Z M4 47 h1 v1 h-1Z M10 47 h1 v1 h-1Z M4 48 h7 v1 h-7Z " /><path class="qr-2560 " stroke="transparent" fill="#000" fill-opacity="1" d="M24 8 h5 v1 h-5Z M24 9 h1 v1 h-1Z M28 9 h1 v1 h-1Z M24 10 h1 v1 h-1Z M26 10 h1 v1 h-1Z M28 10 h1 v1 h-1Z M24 11 h1 v1 h-1Z M28 11 h1 v1 h-1Z M24 12 h5 v1 h-5Z M8 24 h5 v1 h-5Z M24 24 h5 v1 h-5Z M40 24 h5 v1 h-5Z M8 25 h1 v1 h-1Z M12 25 h1 v1 h-1Z M24 25 h1 v1 h-1Z M28 25 h1 v1 h-1Z M40 25 h1 v1 h-1Z M44 25 h1 v1 h-1Z M8 26 h1 v1 h-1Z M10 26 h1 v1 h-1Z M12 26 h1 v1 h-1Z M24 26 h1 v1 h-1Z M26 26 h1 v1 h-1Z M28 26 h1 v1 h-1Z M40 26 h1 v1 h-1Z M42 26 h1 v1 h-1Z M44 26 h1 v1 h-1Z M8 27 h1 v1 h-1Z M12 27 h1 v1 h-1Z M24 27 h1 v1 h-1Z M28 27 h1 v1 h-1Z M40 27 h1 v1 h-1Z M44 27 h1 v1 h-1Z M8 28 h5 v1 h-5Z M24 28 h5 v1 h-5Z M40 28 h5 v1 h-5Z M24 40 h5 v1 h-5Z M40 40 h5 v1 h-5Z M24 41 h1 v1 h-1Z M28 41 h1 v1 h-1Z M40 41 h1 v1 h-1Z M44 41 h1 v1 h-1Z M24 42 h1 v1 h-1Z M26 42 h1 v1 h-1Z M28 42 h1 v1 h-1Z M40 42 h1 v1 h-1Z M42 42 h1 v1 h-1Z M44 42 h1 v1 h-1Z M24 43 h1 v1 h-1Z M28 43 h1 v1 h-1Z M40 43 h1 v1 h-1Z M44 43 h1 v1 h-1Z M24 44 h5 v1 h-5Z M40 44 h5 v1 h-5Z " /><path class="qr-3072 " stroke="transparent" fill="#000" fill-opacity="1" d="M12 10 h1 v1 h-1Z M14 10 h1 v1 h-1Z M16 10 h1 v1 h-1Z M18 10 h1 v1 h-1Z M20 10 h1 v1 h-1Z M22 10 h1 v1 h-1Z M30 10 h1 v1 h-1Z M32 10 h1 v1 h-1Z M34 10 h1 v1 h-1Z M36 10 h1 v1 h-1Z M38 10 h1 v1 h-1Z M40 10 h1 v1 h-1Z M10 12 h1 v1 h-1Z M10 14 h1 v1 h-1Z M10 16 h1 v1 h-1Z M10 18 h1 v1 h-1Z M10 20 h1 v1 h-1Z M10 22 h1 v1 h-1Z M10 30 h1 v1 h-1Z M10 32 h1 v1 h-1Z M10 34 h1 v1 h-1Z M10 36 h1 v1 h-1Z M10 38 h1 v1 h-1Z M10 40 h1 v1 h-1Z " /><path class="qr-3584 " stroke="transparent" fill="#000" fill-opacity="1" d="M12 8 h1 v1 h-1Z M12 11 h1 v1 h-1Z M6 12 h2 v1 h-2Z M11 12 h2 v1 h-2Z M41 12 h2 v1 h-2Z M44 12 h1 v1 h-1Z M12 42 h1 v1 h-1Z M12 45 h1 v1 h-1Z M12 46 h1 v1 h-1Z " /><path class="qr-4096 " stroke="transparent" fill="#000" fill-opacity="1" d="M40 4 h1 v1 h-1Z M39 5 h1 v1 h-1Z M39 6 h1 v1 h-1Z M39 7 h2 v1 h-2Z M38 8 h3 v1 h-3Z M8 38 h1 v1 h-1Z M5 39 h4 v1 h-4Z M4 40 h1 v1 h-1Z M7 40 h2 v1 h-2Z " /><path class="qr-5632 " stroke="transparent" fill="#000" fill-opacity="1" d="M6 6 h3 v1 h-3Z M44 6 h3 v1 h-3Z M6 7 h3 v1 h-3Z M44 7 h3 v1 h-3Z M6 8 h3 v1 h-3Z M44 8 h3 v1 h-3Z M6 44 h3 v1 h-3Z M6 45 h3 v1 h-3Z M6 46 h3 v1 h-3Z " /></svg>
